<?xml version="1.0" encoding="UTF-8"?>
<svg id="Layer_1" data-name="Layer 1" xmlns="http://www.w3.org/2000/svg" viewBox="0 0 450.4 124.83">
  <defs>
    <style>
      .cls-1 {
        fill: #fff;
      }
    </style>
  </defs>
  <path class="cls-1" d="M155.73,0v114.36h-18.95V0h18.95Z"/>
  <path class="cls-1" d="M172.72,114.36V0h18.79v45.75c5.88-8.17,16.01-13.4,27.12-13.4,22.06,0,39.05,18.13,39.05,41.98s-16.99,41.99-39.05,41.99c-11.11,0-21.24-4.74-27.12-12.91v10.95h-18.79ZM214.7,49.5c-13.56,0-24.01,10.95-24.01,24.83s10.45,24.83,24.01,24.83,24.01-10.95,24.01-24.83-10.45-24.83-24.01-24.83Z"/>
  <path class="cls-1" d="M342.63,95.57c-6.7,12.58-19.28,20.75-36.11,20.75-24.34,0-41.66-17.32-41.66-41.99s17.48-41.98,40.68-41.98,39.86,18.14,39.86,41.98c0,3.11-.17,5.23-.17,5.72h-61.59c.82,11.6,11.11,20.26,23.03,20.26,10.46,0,15.85-5.06,20.42-12.09l15.52,7.35h0ZM326.61,66.33c-1.14-10.62-9.96-18.46-21.4-18.46s-20.26,9.31-21.4,18.46h42.8Z"/>
  <path class="cls-1" d="M394.25,49.8c-13.88,0-22.38,8.32-22.38,24.82v39.73h-18.79V34.31h18.62v13.72c3.92-9.31,14.12-15.55,28.02-15.55v17.32h-5.47M407.08,6.84h20.33v25.64h22.98v17.33h-22.98v34.14c0,9.55,4.24,13.79,13.43,13.79,3.18,0,6.9-.89,9.55-2.65v18.21c-3.36,1.77-8.49,3.18-15.56,3.18-17.33,0-27.76-10.78-27.76-28.82V6.84h0Z"/>
  <path class="cls-1" d="M119.79,66.31V0h-17.74L0,114.36h24L102.29,26.62v39.7h-18.67c-8.94,0-16.92,5.34-20.34,13.59-3.42,8.25-1.55,17.68,4.77,24l14.47,14.47c6.32,6.32,15.74,8.19,23.99,4.77,8.26-3.42,13.27-11.41,13.27-20.34v-19.49h9.63v-17h-9.63,0ZM102.29,102.8c0,2.13-1.13,3.82-3.1,4.64-.67.28-1.34.42-2,.42-1.27,0-2.47-.51-3.46-1.5l-14.47-14.47c-1.5-1.5-1.9-3.5-1.09-5.47.81-1.97,2.5-3.1,4.64-3.1h19.49v19.49h0Z"/>
</svg>
