<svg width="32" height="32" viewBox="0 0 32 32" fill="none" xmlns="http://www.w3.org/2000/svg">
<rect x="2" y="2" width="28" height="28" rx="14" fill="black"/>
<path d="M22.2329 15.4998V7H19.9031L6.5 21.6587H9.65181L19.9358 10.4118V15.4998H17.4838C16.31 15.4998 15.2613 16.1836 14.8125 17.2417C14.3637 18.2997 14.6091 19.5071 15.4395 20.3175L17.3401 22.1722C18.1705 22.9817 19.4077 23.2221 20.4919 22.7841C21.577 22.3452 22.2348 21.3218 22.2348 20.1772V17.6796H23.5V15.5007H22.2348L22.2329 15.4998ZM19.9348 20.1763C19.9348 20.4495 19.7865 20.6662 19.528 20.7709C19.4403 20.8064 19.3517 20.8246 19.2649 20.8246C19.0988 20.8246 18.9402 20.7591 18.8105 20.6316L16.9099 18.7768C16.7121 18.5838 16.6599 18.3289 16.7672 18.0757C16.8745 17.8235 17.0956 17.6787 17.3765 17.6787H19.9358V20.1763H19.9348Z" fill="white"/>
</svg>
